<svg width="810" height="121" viewBox="0 0 810 121" fill="none" xmlns="http://www.w3.org/2000/svg">
<path d="M43.86 120.36C35.9267 120.36 28.6167 118.433 21.93 114.58C15.2433 110.613 9.91667 105.287 5.95 98.6C1.98333 91.8 0 84.4333 0 76.5C0 68.5667 1.98333 61.2567 5.95 54.57C9.91667 47.77 15.2433 42.4433 21.93 38.59C28.6167 34.6233 35.9267 32.64 43.86 32.64C51.7933 32.64 59.1033 34.6233 65.79 38.59C72.4767 42.4433 77.7467 47.77 81.6 54.57C85.5667 61.2567 87.55 68.5667 87.55 76.5V119H65.45V109.99C64.2033 112.823 61.4833 115.26 57.29 117.3C53.0967 119.34 48.62 120.36 43.86 120.36ZM44.03 98.77C50.2633 98.77 55.42 96.6733 59.5 92.48C63.58 88.1733 65.62 82.8467 65.62 76.5C65.62 70.1533 63.58 64.8833 59.5 60.69C55.42 56.3833 50.2633 54.23 44.03 54.23C37.7967 54.23 32.5833 56.3833 28.39 60.69C24.1967 64.8833 22.1 70.1533 22.1 76.5C22.1 82.8467 24.1967 88.1733 28.39 92.48C32.5833 96.6733 37.7967 98.77 44.03 98.77Z" fill="#2C77BE"/>
<path d="M164.273 97.41V119H96.1031V97.41L134.523 55.59H97.8031V34H162.743V55.59L124.153 97.41H164.273Z" fill="#2C77BE"/>
<path d="M225.542 34H247.642V78.71C247.642 92.5367 244.242 102.963 237.442 109.99C230.642 116.903 221.576 120.36 210.242 120.36C198.909 120.36 189.842 116.903 183.042 109.99C176.242 102.963 172.842 92.5367 172.842 78.71V34H194.942V78.71C194.942 85.6233 196.132 90.7233 198.512 94.01C201.006 97.1833 204.916 98.77 210.242 98.77C215.569 98.77 219.422 97.1833 221.802 94.01C224.296 90.7233 225.542 85.6233 225.542 78.71V34Z" fill="#2C77BE"/>
<path d="M257.842 74.29C257.842 60.8033 261.186 50.66 267.872 43.86C274.559 37.06 283.342 33.66 294.222 33.66H295.242V55.25H294.392C289.519 55.25 285.892 56.78 283.512 59.84C281.132 62.9 279.942 67.7167 279.942 74.29V119H257.842V74.29Z" fill="#2C77BE"/>
<path d="M301.318 76.67C301.318 68.85 303.188 61.5967 306.928 54.91C310.782 48.11 315.995 42.7267 322.568 38.76C329.255 34.68 336.565 32.64 344.498 32.64C351.752 32.64 358.722 34.34 365.408 37.74C372.095 41.0267 377.592 45.8433 381.898 52.19C386.318 58.5367 388.642 66.0167 388.868 74.63C388.982 78.2567 388.755 81.77 388.188 85.17H325.118C326.138 89.3633 328.348 92.7067 331.748 95.2C335.262 97.58 339.512 98.77 344.498 98.77C348.012 98.77 350.845 98.3167 352.998 97.41C355.265 96.5033 357.305 95.3133 359.118 93.84L385.468 94.01C381.955 101.83 376.572 108.177 369.318 113.05C362.065 117.923 354.018 120.36 345.178 120.36C337.132 120.36 329.765 118.433 323.078 114.58C316.392 110.613 311.065 105.287 307.098 98.6C303.245 91.9133 301.318 84.6033 301.318 76.67ZM365.238 67.49C363.538 63.5233 360.818 60.35 357.078 57.97C353.452 55.4767 349.485 54.23 345.178 54.23C340.418 54.23 336.338 55.42 332.938 57.8C329.538 60.18 326.932 63.41 325.118 67.49H365.238Z" fill="#2C77BE"/>
<path d="M445.108 0H467.378V39.1C473.384 34.7933 480.524 32.64 488.798 32.64C496.731 32.64 504.041 34.6233 510.728 38.59C517.414 42.4433 522.741 47.77 526.708 54.57C530.674 61.2567 532.658 68.5667 532.658 76.5C532.658 84.4333 530.674 91.8 526.708 98.6C522.741 105.287 517.414 110.613 510.728 114.58C504.041 118.433 496.731 120.36 488.798 120.36C480.865 120.36 473.555 118.433 466.868 114.58C460.181 110.613 454.854 105.287 450.888 98.6C447.034 91.8 445.108 84.4333 445.108 76.5V0ZM488.968 54.23C482.734 54.23 477.521 56.3833 473.328 60.69C469.134 64.8833 467.038 70.1533 467.038 76.5C467.038 82.8467 469.134 88.1733 473.328 92.48C477.521 96.6733 482.734 98.77 488.968 98.77C495.201 98.77 500.358 96.6733 504.438 92.48C508.518 88.1733 510.558 82.8467 510.558 76.5C510.558 70.1533 508.518 64.8833 504.438 60.69C500.358 56.3833 495.201 54.23 488.968 54.23Z" fill="#2C77BE"/>
<path d="M585.071 120.36C577.138 120.36 569.828 118.433 563.141 114.58C556.454 110.613 551.128 105.287 547.161 98.6C543.194 91.8 541.211 84.4333 541.211 76.5C541.211 68.5667 543.194 61.2567 547.161 54.57C551.128 47.77 556.454 42.4433 563.141 38.59C569.828 34.6233 577.138 32.64 585.071 32.64C593.004 32.64 600.314 34.6233 607.001 38.59C613.688 42.4433 618.958 47.77 622.811 54.57C626.778 61.2567 628.761 68.5667 628.761 76.5V119H606.661V109.99C605.414 112.823 602.694 115.26 598.501 117.3C594.308 119.34 589.831 120.36 585.071 120.36ZM585.241 98.77C591.474 98.77 596.631 96.6733 600.711 92.48C604.791 88.1733 606.831 82.8467 606.831 76.5C606.831 70.1533 604.791 64.8833 600.711 60.69C596.631 56.3833 591.474 54.23 585.241 54.23C579.008 54.23 573.794 56.3833 569.601 60.69C565.408 64.8833 563.311 70.1533 563.311 76.5C563.311 82.8467 565.408 88.1733 569.601 92.48C573.794 96.6733 579.008 98.77 585.241 98.77Z" fill="#2C77BE"/>
<path d="M713.814 74.29V119H691.714V74.29C691.714 67.3767 690.467 62.3333 687.974 59.16C685.594 55.8733 681.741 54.23 676.414 54.23C671.087 54.23 667.177 55.8733 664.684 59.16C662.304 62.3333 661.114 67.3767 661.114 74.29V119H639.014V74.29C639.014 60.4633 642.414 50.0933 649.214 43.18C656.014 36.1533 665.081 32.64 676.414 32.64C687.747 32.64 696.814 36.1533 703.614 43.18C710.414 50.0933 713.814 60.4633 713.814 74.29Z" fill="#2C77BE"/>
<path d="M725.674 0H747.774V62.05L775.994 34H804.214L771.914 66.64L809.654 119H785.004L756.954 80.58L747.774 89.76V119H725.674V0Z" fill="#2C77BE"/>
<path d="M67.75 10.5L19.75 3.00001V19.25L67.75 26V10.5Z" fill="#2C77BE"/>
</svg>
