<svg width="25" height="25" viewBox="0 0 25 25" fill="none" xmlns="http://www.w3.org/2000/svg">
<path d="M11.7178 23.4355H1.56239V1.56233H11.7178C12.149 1.56233 12.499 1.21233 12.499 0.781165C12.499 0.349998 12.149 0 11.7178 0H0.781165C0.349998 0 0 0.349933 0 0.781165V24.2167C0 24.6479 0.349998 24.9979 0.781165 24.9979H11.7177C12.149 24.9979 12.4989 24.6479 12.4989 24.2167C12.499 23.7855 12.149 23.4355 11.7178 23.4355Z" fill="white"/>
<path d="M24.7714 11.9536L19.3812 6.48611C19.0758 6.17754 18.5813 6.17832 18.2766 6.48611C17.9712 6.7939 17.9712 7.29383 18.2766 7.60162L22.3388 11.7224H6.25187C5.82064 11.7224 5.4707 12.0755 5.4707 12.5114C5.4707 12.9473 5.8207 13.3004 6.25187 13.3004H22.3388L18.2766 17.4212C17.9712 17.7298 17.9712 18.2289 18.2766 18.5367C18.5821 18.8453 19.0765 18.8453 19.3812 18.5367L24.7706 13.0692C25.0722 12.7653 25.0753 12.2567 24.7714 11.9536Z" fill="white"/>
</svg>
