<svg xmlns="http://www.w3.org/2000/svg" xmlns:xlink="http://www.w3.org/1999/xlink" width="289" zoomAndPan="magnify" viewBox="0 0 216.75 112.499997" height="150" preserveAspectRatio="xMidYMid meet" version="1.0"><path fill="#ffffff" d="M 13.507812 68.734375 C 11.417969 68.734375 9.492188 68.226562 7.730469 67.214844 C 5.96875 66.167969 4.566406 64.765625 3.519531 63.003906 C 2.476562 61.210938 1.953125 59.273438 1.953125 57.183594 C 1.953125 55.09375 2.476562 53.167969 3.519531 51.40625 C 4.566406 49.613281 5.96875 48.210938 7.730469 47.195312 C 9.492188 46.152344 11.417969 45.628906 13.507812 45.628906 C 15.59375 45.628906 17.519531 46.152344 19.28125 47.195312 C 21.042969 48.210938 22.433594 49.613281 23.445312 51.40625 C 24.492188 53.167969 25.015625 55.09375 25.015625 57.183594 L 25.015625 68.378906 L 19.191406 68.378906 L 19.191406 66.003906 C 18.863281 66.75 18.148438 67.390625 17.042969 67.929688 C 15.9375 68.46875 14.761719 68.734375 13.507812 68.734375 Z M 13.550781 63.046875 C 15.191406 63.046875 16.550781 62.496094 17.625 61.390625 C 18.699219 60.257812 19.238281 58.855469 19.238281 57.183594 C 19.238281 55.511719 18.699219 54.121094 17.625 53.019531 C 16.550781 51.882812 15.191406 51.316406 13.550781 51.316406 C 11.910156 51.316406 10.535156 51.882812 9.429688 53.019531 C 8.328125 54.121094 7.773438 55.511719 7.773438 57.183594 C 7.773438 58.855469 8.328125 60.257812 9.429688 61.390625 C 10.535156 62.496094 11.910156 63.046875 13.550781 63.046875 Z M 45.222656 62.691406 L 45.222656 68.378906 L 27.265625 68.378906 L 27.265625 62.691406 L 37.386719 51.675781 L 27.714844 51.675781 L 27.714844 45.988281 L 44.820312 45.988281 L 44.820312 51.675781 L 34.65625 62.691406 Z M 61.363281 45.988281 L 67.183594 45.988281 L 67.183594 57.765625 C 67.183594 61.40625 66.289062 64.152344 64.496094 66.003906 C 62.707031 67.824219 60.320312 68.734375 57.332031 68.734375 C 54.347656 68.734375 51.960938 67.824219 50.167969 66.003906 C 48.378906 64.152344 47.480469 61.40625 47.480469 57.765625 L 47.480469 45.988281 L 53.304688 45.988281 L 53.304688 57.765625 C 53.304688 59.585938 53.617188 60.929688 54.242188 61.792969 C 54.898438 62.628906 55.929688 63.046875 57.332031 63.046875 C 58.734375 63.046875 59.75 62.628906 60.378906 61.792969 C 61.035156 60.929688 61.363281 59.585938 61.363281 57.765625 Z M 69.871094 56.601562 C 69.871094 53.046875 70.753906 50.375 72.511719 48.585938 C 74.273438 46.792969 76.589844 45.898438 79.453125 45.898438 L 79.722656 45.898438 L 79.722656 51.585938 L 79.5 51.585938 C 78.214844 51.585938 77.261719 51.988281 76.632812 52.792969 C 76.007812 53.601562 75.691406 54.867188 75.691406 56.601562 L 75.691406 68.378906 L 69.871094 68.378906 Z M 81.324219 57.226562 C 81.324219 55.167969 81.816406 53.257812 82.800781 51.496094 C 83.816406 49.703125 85.191406 48.285156 86.921875 47.242188 C 88.683594 46.167969 90.609375 45.628906 92.699219 45.628906 C 94.609375 45.628906 96.445312 46.078125 98.207031 46.972656 C 99.96875 47.839844 101.414062 49.105469 102.550781 50.777344 C 103.714844 52.449219 104.324219 54.421875 104.386719 56.691406 C 104.414062 57.644531 104.355469 58.570312 104.207031 59.464844 L 87.59375 59.464844 C 87.863281 60.570312 88.445312 61.453125 89.339844 62.109375 C 90.265625 62.734375 91.382812 63.046875 92.699219 63.046875 C 93.625 63.046875 94.371094 62.929688 94.9375 62.691406 C 95.535156 62.453125 96.070312 62.136719 96.550781 61.75 L 103.488281 61.792969 C 102.566406 63.855469 101.148438 65.527344 99.234375 66.808594 C 97.324219 68.09375 95.207031 68.734375 92.878906 68.734375 C 90.757812 68.734375 88.816406 68.226562 87.054688 67.214844 C 85.292969 66.167969 83.890625 64.765625 82.847656 63.003906 C 81.832031 61.242188 81.324219 59.316406 81.324219 57.226562 Z M 98.160156 54.808594 C 97.714844 53.765625 96.996094 52.929688 96.011719 52.300781 C 95.054688 51.644531 94.011719 51.316406 92.878906 51.316406 C 91.625 51.316406 90.546875 51.628906 89.652344 52.257812 C 88.757812 52.882812 88.070312 53.734375 87.59375 54.808594 Z M 119.199219 37.03125 L 125.066406 37.03125 L 125.066406 47.332031 C 126.648438 46.195312 128.527344 45.628906 130.707031 45.628906 C 132.796875 45.628906 134.722656 46.152344 136.484375 47.195312 C 138.246094 48.210938 139.648438 49.613281 140.695312 51.40625 C 141.738281 53.167969 142.261719 55.09375 142.261719 57.183594 C 142.261719 59.273438 141.738281 61.210938 140.695312 63.003906 C 139.648438 64.765625 138.246094 66.167969 136.484375 67.214844 C 134.722656 68.226562 132.796875 68.734375 130.707031 68.734375 C 128.617188 68.734375 126.691406 68.226562 124.929688 67.214844 C 123.171875 66.167969 121.765625 64.765625 120.722656 63.003906 C 119.707031 61.210938 119.199219 59.273438 119.199219 57.183594 Z M 130.753906 51.316406 C 129.109375 51.316406 127.738281 51.882812 126.632812 53.019531 C 125.527344 54.121094 124.976562 55.511719 124.976562 57.183594 C 124.976562 58.855469 125.527344 60.257812 126.632812 61.390625 C 127.738281 62.496094 129.109375 63.046875 130.753906 63.046875 C 132.394531 63.046875 133.753906 62.496094 134.828125 61.390625 C 135.902344 60.257812 136.441406 58.855469 136.441406 57.183594 C 136.441406 55.511719 135.902344 54.121094 134.828125 53.019531 C 133.753906 51.882812 132.394531 51.316406 130.753906 51.316406 Z M 156.066406 68.734375 C 153.976562 68.734375 152.050781 68.226562 150.292969 67.214844 C 148.53125 66.167969 147.125 64.765625 146.082031 63.003906 C 145.035156 61.210938 144.515625 59.273438 144.515625 57.183594 C 144.515625 55.09375 145.035156 53.167969 146.082031 51.40625 C 147.125 49.613281 148.53125 48.210938 150.292969 47.195312 C 152.050781 46.152344 153.976562 45.628906 156.066406 45.628906 C 158.15625 45.628906 160.082031 46.152344 161.84375 47.195312 C 163.605469 48.210938 164.992188 49.613281 166.007812 51.40625 C 167.054688 53.167969 167.578125 55.09375 167.578125 57.183594 L 167.578125 68.378906 L 161.753906 68.378906 L 161.753906 66.003906 C 161.425781 66.75 160.710938 67.390625 159.605469 67.929688 C 158.5 68.46875 157.320312 68.734375 156.066406 68.734375 Z M 156.113281 63.046875 C 157.753906 63.046875 159.113281 62.496094 160.1875 61.390625 C 161.261719 60.257812 161.800781 58.855469 161.800781 57.183594 C 161.800781 55.511719 161.261719 54.121094 160.1875 53.019531 C 159.113281 51.882812 157.753906 51.316406 156.113281 51.316406 C 154.472656 51.316406 153.097656 51.882812 151.992188 53.019531 C 150.886719 54.121094 150.335938 55.511719 150.335938 57.183594 C 150.335938 58.855469 150.886719 60.257812 151.992188 61.390625 C 153.097656 62.496094 154.472656 63.046875 156.113281 63.046875 Z M 189.980469 56.601562 L 189.980469 68.378906 L 184.160156 68.378906 L 184.160156 56.601562 C 184.160156 54.777344 183.832031 53.449219 183.171875 52.613281 C 182.546875 51.75 181.53125 51.316406 180.128906 51.316406 C 178.726562 51.316406 177.695312 51.75 177.039062 52.613281 C 176.410156 53.449219 176.097656 54.777344 176.097656 56.601562 L 176.097656 68.378906 L 170.277344 68.378906 L 170.277344 56.601562 C 170.277344 52.957031 171.171875 50.226562 172.964844 48.40625 C 174.753906 46.554688 177.144531 45.628906 180.128906 45.628906 C 183.113281 45.628906 185.503906 46.554688 187.292969 48.40625 C 189.085938 50.226562 189.980469 52.957031 189.980469 56.601562 Z M 193.105469 37.03125 L 198.925781 37.03125 L 198.925781 53.375 L 206.359375 45.988281 L 213.792969 45.988281 L 205.285156 54.585938 L 215.226562 68.378906 L 208.734375 68.378906 L 201.34375 58.257812 L 198.925781 60.675781 L 198.925781 68.378906 L 193.105469 68.378906 Z M 193.105469 37.03125 " fill-opacity="1" fill-rule="nonzero"/><path fill="#f82356" d="M 19.800781 39.796875 L 7.15625 37.820312 L 7.15625 42.101562 L 19.800781 43.878906 Z M 19.800781 39.796875 " fill-opacity="1" fill-rule="nonzero"/></svg>