<svg xmlns="http://www.w3.org/2000/svg" xmlns:xlink="http://www.w3.org/1999/xlink" width="1080" zoomAndPan="magnify" viewBox="0 0 810 809.999993" height="1080" preserveAspectRatio="xMidYMid meet" version="1.0"><path stroke-linecap="round" transform="matrix(20.474972, 0, 0, 20.482757, 97.746217, 107.987628)" fill="none" stroke-linejoin="round" d="M 12.189419 17.059732 L 27.229504 2.025363 M 12.617151 17.735986 L 16.027374 24.55651 C 16.851551 26.204809 17.26364 27.029054 17.782757 27.250086 C 18.233192 27.441749 18.748112 27.40704 19.168977 27.156639 C 19.653753 26.867905 19.951372 25.995983 20.546993 24.251947 L 26.990645 5.381273 C 27.509571 3.861702 27.768844 3.101917 27.591226 2.599207 C 27.436883 2.162102 27.092904 1.818063 26.655632 1.663588 C 26.152922 1.486038 25.39323 1.745402 23.873653 2.264322 L 5.003053 8.708004 C 3.259118 9.303589 2.387055 9.601286 2.098402 10.086069 C 1.847906 10.506773 1.813183 11.021688 2.004919 11.472143 C 2.226035 11.991254 3.050021 12.403376 4.698375 13.22743 L 11.519012 16.637883 C 11.790685 16.773668 11.926522 16.84156 12.044043 16.932147 C 12.148591 17.012817 12.242265 17.106455 12.322584 17.210773 C 12.413396 17.328441 12.481315 17.464226 12.617151 17.735986 Z M 12.617151 17.735986 " stroke="#2c77be" stroke-width="3" stroke-opacity="1" stroke-miterlimit="4"/></svg>