<svg xmlns="http://www.w3.org/2000/svg" xmlns:xlink="http://www.w3.org/1999/xlink" width="1080" zoomAndPan="magnify" viewBox="0 0 810 809.999993" height="1080" preserveAspectRatio="xMidYMid meet" version="1.0"><path fill="#2c77be" d="M 317.71875 158.089844 L 361 158.089844 L 361 276.925781 C 361 287.953125 369.972656 296.925781 380.992188 296.925781 L 429.269531 296.925781 C 440.289062 296.925781 449.261719 287.953125 449.261719 276.925781 L 449.261719 158.089844 L 492.546875 158.089844 C 509.128906 158.089844 518.214844 138.777344 507.648438 126.054688 L 420.296875 20.734375 C 412.460938 11.308594 398.03125 11.308594 390.191406 20.734375 L 302.835938 126.054688 C 292.046875 138.777344 301.132812 158.089844 317.71875 158.089844 Z M 317.71875 158.089844 " fill-opacity="1" fill-rule="nonzero"/><path fill="#2c77be" d="M 404.957031 435.535156 C 328.164062 435.535156 265.917969 497.789062 265.917969 574.59375 C 265.917969 651.394531 328.164062 713.648438 404.957031 713.648438 C 481.75 713.648438 544 651.394531 544 574.59375 C 544 497.789062 481.75 435.535156 404.957031 435.535156 Z M 474.824219 559.9375 L 403.140625 631.511719 C 398.367188 636.28125 392.238281 638.667969 385.988281 638.667969 C 379.742188 638.667969 373.605469 636.28125 368.835938 631.511719 L 333.277344 595.949219 C 323.851562 586.519531 323.851562 571.070312 333.277344 561.640625 C 342.707031 552.210938 358.15625 552.210938 367.582031 561.640625 L 385.988281 580.042969 L 440.511719 525.511719 C 449.941406 516.082031 465.390625 516.082031 474.824219 525.511719 C 484.25 535.058594 484.25 550.394531 474.824219 559.9375 Z M 474.824219 559.9375 " fill-opacity="1" fill-rule="nonzero"/><path fill="#2c77be" d="M 730.867188 344.417969 L 79.050781 344.417969 C 57.234375 344.417969 39.519531 362.140625 39.519531 383.953125 L 39.519531 765.117188 C 39.519531 786.929688 57.234375 804.648438 79.050781 804.648438 L 730.980469 804.648438 C 752.789062 804.648438 770.511719 786.929688 770.511719 765.117188 L 770.511719 383.953125 C 770.511719 362.140625 752.679688 344.417969 730.867188 344.417969 Z M 714.167969 671.503906 C 675.09375 679 644.757812 709.445312 637.148438 748.53125 L 172.652344 748.53125 C 165.042969 709.445312 134.707031 679.113281 95.632812 671.503906 L 95.632812 477.679688 C 134.707031 470.183594 165.042969 439.738281 172.652344 400.65625 L 637.148438 400.65625 C 644.757812 439.738281 675.09375 470.070312 714.167969 477.679688 Z M 714.167969 671.503906 " fill-opacity="1" fill-rule="nonzero"/><path fill="#2c77be" d="M 183.332031 535.738281 C 161.863281 535.738281 144.476562 553.121094 144.476562 574.59375 C 144.476562 596.0625 161.863281 613.445312 183.332031 613.445312 C 204.800781 613.445312 222.179688 596.0625 222.179688 574.59375 C 222.179688 553.121094 204.800781 535.738281 183.332031 535.738281 Z M 183.332031 535.738281 " fill-opacity="1" fill-rule="nonzero"/><path fill="#2c77be" d="M 626.582031 535.738281 C 605.113281 535.738281 587.734375 553.121094 587.734375 574.59375 C 587.734375 596.0625 605.113281 613.445312 626.582031 613.445312 C 648.050781 613.445312 665.4375 596.0625 665.4375 574.59375 C 665.324219 553.121094 647.941406 535.738281 626.582031 535.738281 Z M 626.582031 535.738281 " fill-opacity="1" fill-rule="nonzero"/></svg>